<mxfile host="app.diagrams.net" modified="2023-08-24T21:50:10.969Z" agent="Mozilla/5.0 (X11; Ubuntu; Linux x86_64; rv:109.0) Gecko/20100101 Firefox/116.0" version="21.6.8" etag="t54pg8OB_tYJpjicLJjG" type="github">
  <diagram name="Page-1" id="dweRY9Ksau5_EtKRtAMQ">
    <mxGraphModel>
      <root>
        <mxCell id="0" />
        <mxCell id="1" parent="0" />
      </root>
    </mxGraphModel>
  </diagram>
</mxfile>
